<?xml version="1.0" encoding="utf-8"?>
<!-- Generator: Adobe Illustrator 26.3.1, SVG Export Plug-In . SVG Version: 6.00 Build 0)  -->
<svg version="1.1" id="Layer_1" xmlns="http://www.w3.org/2000/svg" xmlns:xlink="http://www.w3.org/1999/xlink" x="0px" y="0px"
	 width="2000.2px" height="1236.3px" viewBox="0 0 2000.2 1236.3" enable-background="new 0 0 2000.2 1236.3" xml:space="preserve">
<path fill="#FF5F00" d="M1266.4,1096.6H733.9V139.7h532.5L1266.4,1096.6z"/>
<path fill="#EB001B" d="M767.7,618.2c0-194.1,90.9-367,232.4-478.5C893,55.2,760.4,9.4,624,9.6C288,9.6,15.5,282.1,15.5,618.2
	S288,1226.7,624,1226.7c136.4,0.2,268.9-45.6,376.1-130.1C858.6,985.2,767.7,812.3,767.7,618.2"/>
<path fill="#F79E1B" d="M1984.7,618.2c0,336.1-272.4,608.6-608.5,608.6c-136.4,0.2-269-45.6-376.1-130.1
	c141.6-111.4,232.5-284.3,232.5-478.5s-90.9-367-232.5-478.5C1107.3,55.2,1239.8,9.4,1376.2,9.6
	C1712.3,9.6,1984.7,282.1,1984.7,618.2"/>
</svg>
